<?xml version="1.0" encoding="UTF-8"?>
<svg version="1.1" xmlns="http://www.w3.org/2000/svg" width="1497" height="996">
<path d="M0 0 C1.57442595 -0.00269765 3.1488506 -0.00626789 4.72327283 -0.01062447 C9.03891864 -0.0200424 13.3544796 -0.01709487 17.67012947 -0.01206893 C22.36945354 -0.0087934 27.06875981 -0.01709222 31.76807815 -0.02388728 C40.00088126 -0.03418293 48.23366085 -0.03703182 56.46646976 -0.03497505 C68.70922437 -0.03192397 80.95195297 -0.04025141 93.19470252 -0.0507243 C116.33298953 -0.0700647 139.47126768 -0.07569253 162.60956182 -0.07683842 C180.47764957 -0.07775753 198.34573384 -0.08187432 216.21382046 -0.08823967 C221.35724204 -0.09003476 226.50066364 -0.09181438 231.64408523 -0.09358943 C232.92275487 -0.09403152 234.20142451 -0.09447362 235.51884171 -0.09492911 C271.48454348 -0.10723719 307.45024324 -0.11514205 343.41594696 -0.11424255 C344.78558819 -0.114211 346.15522941 -0.11417952 347.52487064 -0.11414814 C353.70846054 -0.11400137 359.89205044 -0.11382504 366.07564034 -0.11364037 C368.83296795 -0.11355812 371.59029556 -0.11347783 374.34762317 -0.11339774 C375.72771388 -0.11335695 377.10780459 -0.11331491 378.48789531 -0.11327162 C422.12493108 -0.11191123 465.76193439 -0.1265454 509.39896107 -0.15435219 C520.3935298 -0.16135446 531.38809856 -0.16829348 542.38266754 -0.17488098 C543.39819227 -0.1754896 543.39819227 -0.1754896 544.43423265 -0.17611052 C581.00630395 -0.19789618 617.5783753 -0.20183474 654.15045291 -0.20042574 C659.29544628 -0.20027648 664.44043964 -0.20017907 669.58543301 -0.20011711 C670.85226095 -0.2000938 672.1190889 -0.20007049 673.42430557 -0.20004648 C693.80968142 -0.19998494 714.19502985 -0.2127559 734.58039754 -0.22998164 C755.06783383 -0.24693559 775.55523001 -0.24891378 796.04266944 -0.235763 C808.21236106 -0.22837247 820.38193083 -0.23203501 832.55160954 -0.25164768 C840.68485799 -0.26364729 848.81801819 -0.26105675 856.95126259 -0.24670668 C861.58251525 -0.23894366 866.2135321 -0.23739202 870.84476813 -0.25362138 C875.06689944 -0.26828714 879.28860079 -0.2641812 883.51071366 -0.24577365 C885.01996639 -0.24236118 886.52925371 -0.24548791 888.03847103 -0.25637607 C908.75836815 -0.39571822 930.61255201 5.01047657 946.04666615 19.63226891 C955.55006855 29.88593992 959.53745503 40.61053338 959.79666615 54.50726891 C959.82357533 55.32743492 959.8504845 56.14760094 959.87820911 56.99262047 C959.78259437 72.97570506 951.30394708 88.8958577 945.29666615 103.38226891 C944.41098775 105.53275769 943.52607787 107.68356313 942.64188099 109.83466148 C940.78433472 114.35269618 938.92393877 118.86954205 937.06180286 123.38568687 C932.91960789 133.44102944 928.82307819 143.51495606 924.7248888 153.58829308 C922.42882823 159.23121902 920.13016087 164.87308296 917.8318224 170.51508141 C917.37316792 171.64117317 916.91451344 172.76726494 916.44196033 173.9274807 C913.12266268 182.0769901 909.80174136 190.22583685 906.4802599 198.37445641 C898.21405167 218.65523787 889.95021798 238.93685255 881.73175526 259.23703575 C875.82716093 273.81970328 869.87956402 288.38472079 863.93033314 302.94922447 C858.5559208 316.10741653 853.19291221 329.27003954 847.85916615 342.44476891 C839.4644554 363.1785533 831.01871214 383.891512 822.57504749 404.60539818 C818.70951381 414.08900379 814.8479998 423.5742422 810.98772144 433.05998802 C808.64549098 438.81475758 806.30169687 444.56888016 803.95413685 450.32147789 C803.50530643 451.42132515 803.05647602 452.52117241 802.59404469 453.65434837 C801.71132637 455.8173484 800.82854559 457.98032293 799.94569874 460.14327049 C797.62260753 465.83873124 795.31080882 471.53849149 793.01559925 477.24524498 C791.75499832 480.37670515 790.48713875 483.50519295 789.21780872 486.6331234 C788.6616267 488.00902949 788.10883369 489.38631238 787.56009388 490.76520348 C773.91051486 525.05460046 748.03905885 549.58187829 714.45291615 564.41351891 C694.40809503 572.91595696 674.2655234 577.57949052 652.46833229 577.51453781 C650.89390634 577.51723546 649.31948169 577.5208057 647.74505946 577.52516228 C643.42941365 577.53458021 639.11385269 577.53163268 634.79820282 577.52660674 C630.09887875 577.52333121 625.39957248 577.53163003 620.70025414 577.53842509 C612.46745103 577.54872074 604.23467144 577.55156963 596.00186253 577.54951286 C583.75910792 577.54646178 571.51637932 577.55478922 559.27362977 577.56526211 C536.13534276 577.58460251 512.99706461 577.59023034 489.85877047 577.59137623 C471.99068272 577.59229534 454.12259845 577.59641213 436.25451183 577.60277748 C431.11109025 577.60457257 425.96766866 577.6063522 420.82424706 577.60812724 C419.54557742 577.60856933 418.26690778 577.60901143 416.94949058 577.60946692 C380.98378881 577.621775 345.01808905 577.62967987 309.05238533 577.62878036 C307.6827441 577.62874881 306.31310288 577.62871734 304.94346165 577.62868595 C298.75987175 577.62853918 292.57628185 577.62836285 286.39269195 577.62817818 C283.63536434 577.62809593 280.87803673 577.62801564 278.12070912 577.62793555 C276.74061841 577.62789476 275.3605277 577.62785272 273.98043698 577.62780943 C230.34340121 577.62644904 186.7063979 577.64108321 143.06937122 577.66889 C132.07480249 577.67589227 121.08023374 577.68283129 110.08566475 577.68941879 C109.07014002 577.69002741 109.07014002 577.69002741 108.03409964 577.69064833 C71.46202834 577.71243399 34.88995699 577.71637255 -1.68212062 577.71496356 C-6.82711399 577.71481429 -11.97210735 577.71471688 -17.11710072 577.71465492 C-18.38392866 577.71463161 -19.65075661 577.71460831 -20.95597328 577.71458429 C-41.34134913 577.71452275 -61.72669756 577.72729371 -82.11206525 577.74451945 C-102.59950154 577.76147341 -123.08689772 577.76345159 -143.57433715 577.75030081 C-155.74402877 577.74291028 -167.91359854 577.74657282 -180.08327725 577.76618549 C-188.2165257 577.77818511 -196.3496859 577.77559456 -204.4829303 577.76124449 C-209.11418296 577.75348148 -213.74519981 577.75192983 -218.37643584 577.7681592 C-222.59856715 577.78282495 -226.8202685 577.77871901 -231.04238136 577.76031146 C-232.5516341 577.75689899 -234.06092142 577.76002572 -235.57013874 577.77091388 C-256.29003586 577.91025603 -278.14421972 572.50406125 -293.57833385 557.88226891 C-303.08173626 547.62859789 -307.06912274 536.90400443 -307.32833385 523.00726891 C-307.35524303 522.18710289 -307.38215221 521.36693687 -307.40987682 520.52191734 C-307.31426256 504.53891288 -298.83562671 488.61855348 -292.82833385 474.13226891 C-291.94778248 471.99423126 -291.06799895 469.85587724 -290.18892956 467.71722984 C-288.33651548 463.21164416 -286.48123377 458.70725471 -284.62423229 454.20355797 C-280.33889673 443.8007108 -276.09921435 433.3792539 -271.85802746 422.95834923 C-270.45064137 419.50065396 -269.04232093 416.0433406 -267.63375378 412.58612633 C-262.16268457 399.15621948 -256.7058633 385.72062837 -251.26397228 372.27887535 C-245.35987583 357.69742502 -239.4129158 343.13356691 -233.46401501 328.57034874 C-228.04631513 315.30668995 -222.64151433 302.03801341 -217.26583385 288.75726891 C-211.02923457 273.34960435 -204.75030261 257.95939803 -198.46456432 242.57172203 C-193.04668267 229.30760498 -187.6416993 216.03847036 -182.26583385 202.75726891 C-176.0326267 187.35798466 -169.75784659 171.97584246 -163.47463512 156.59689903 C-158.15543756 143.57693397 -152.85264491 130.5506041 -147.57885265 117.51218224 C-145.78429044 113.0786438 -143.9843599 108.64728309 -142.18372631 104.2162075 C-140.88105777 101.00953373 -139.58245007 97.80138931 -138.2907362 94.59027672 C-123.11009292 56.86026426 -99.69149636 29.75239147 -61.98458385 13.10101891 C-41.93976274 4.59858085 -21.79719111 -0.06495271 0 0 Z " fill="#FEFEFE" transform="translate(416.7658338546753,185.74273109436035)"/>
<path d="M0 0 C114.51 0 229.02 0 347 0 C344.67773684 15.09471055 344.67773684 15.09471055 343.51953125 22.0859375 C343.38617371 22.89287048 343.25281616 23.69980347 343.11541748 24.53118896 C342.68243013 27.14601348 342.24772603 29.76054721 341.8125 32.375 C341.58432083 33.74757965 341.58432083 33.74757965 341.35153198 35.14788818 C339.0532184 48.9508765 336.6359492 62.7284393 334.1312561 76.49530029 C331.62168527 90.30895064 329.286045 104.14773769 327 118 C324.492991 133.18478354 321.91846966 148.35377109 319.1875 163.5 C319.04642822 164.28294434 318.90535645 165.06588867 318.76000977 165.87255859 C316.88564866 176.25720393 314.94474884 186.62800617 313 197 C281.98 197 250.96 197 219 197 C220.12471655 185.75283447 220.12471655 185.75283447 220.83203125 181.43359375 C221.06672119 179.98496948 221.06672119 179.98496948 221.30615234 178.50708008 C221.47324707 177.49411865 221.6403418 176.48115723 221.8125 175.4375 C222.17584048 173.20053045 222.53912014 170.96355103 222.90234375 168.7265625 C223.08651855 167.59895508 223.27069336 166.47134766 223.46044922 165.30957031 C224.27517047 160.31212179 225.0756593 155.31242801 225.875 150.3125 C226.03460205 149.31597412 226.1942041 148.31944824 226.35864258 147.29272461 C228.18376094 135.88201101 229.9808633 124.46686843 231.77978516 113.05200195 C233.25438521 103.69880282 234.74407184 94.34821587 236.25 85 C237.58928898 76.6781453 238.86441629 68.35251702 240 60 C239.48783936 60.76123169 239.48783936 60.76123169 238.96533203 61.5378418 C232.71872617 70.80102466 226.40914916 79.92004115 219.515625 88.71484375 C216.07714636 93.14917337 212.88843694 97.75973941 209.66943359 102.35424805 C206.00798224 107.57882616 202.30314679 112.7693312 198.5625 117.9375 C198.02262451 118.68346436 197.48274902 119.42942871 196.92651367 120.19799805 C195.83161956 121.71013427 194.73648578 123.22209699 193.64111328 124.73388672 C190.92351827 128.486448 188.21205527 132.24343419 185.5 136 C184.41669638 137.50002146 183.33336304 139.00002146 182.25 140.5 C181.71375 141.2425 181.1775 141.985 180.625 142.75 C179 145 177.375 147.25 175.75 149.5 C174.9453833 150.61411255 174.9453833 150.61411255 174.12451172 151.75073242 C173.04287732 153.24834254 171.96117177 154.74590126 170.87939453 156.2434082 C168.14447705 160.02955187 165.41086281 163.81662455 162.6796875 167.60546875 C159.98410212 171.34477527 157.28216183 175.07943698 154.57861328 178.81298828 C152.98167913 181.02538174 151.39470335 183.2446811 149.80859375 185.46484375 C148.81011768 186.85172224 147.81142974 188.23844824 146.8125 189.625 C146.35472168 190.27106201 145.89694336 190.91712402 145.42529297 191.58276367 C144.33254257 193.09190905 143.17252484 194.55196385 142 196 C141.34 196 140.68 196 140 196 C139.63463135 195.09386963 139.2692627 194.18773926 138.89282227 193.25415039 C131.23280456 174.26692185 123.49726132 155.31341577 115.63589478 136.40863037 C109.0222232 120.50187787 102.48521805 104.56447924 95.9753418 88.61499023 C92.34830963 79.72996151 88.71346065 70.84936172 85 62 C83.527794 64.70332693 82.67302107 67.01407127 82.21875 70.0546875 C82.09886719 70.83585937 81.97898437 71.61703125 81.85546875 72.421875 C81.73816406 73.23140625 81.62085938 74.0409375 81.5 74.875 C81.38269531 75.64585937 81.26539063 76.41671875 81.14453125 77.2109375 C80.60739242 80.76876027 80.09239008 84.32903967 79.6015625 87.89355469 C77.79704257 100.89322131 75.59612383 113.82962158 73.45898438 126.77783203 C72.92979753 129.9871097 72.40236885 133.19667316 71.875 136.40625 C71.71660645 137.36188843 71.55821289 138.31752686 71.39501953 139.30212402 C70.15379948 146.85787198 69.08363092 154.41458354 68 162 C66.02 173.55 64.04 185.1 62 197 C30.98 197 -0.04 197 -32 197 C-30.87508024 184.62588259 -30.87508024 184.62588259 -30.04785156 179.73535156 C-29.86366669 178.63380234 -29.67948181 177.53225311 -29.48971558 176.39732361 C-29.29201569 175.24011307 -29.0943158 174.08290253 -28.890625 172.890625 C-28.68365997 171.65868912 -28.47669495 170.42675323 -28.26345825 169.15748596 C-27.82314846 166.53913032 -27.38144845 163.92105959 -26.93719482 161.30337524 C-26.24111324 157.20125925 -25.55082234 153.09818272 -24.86181641 148.99487305 C-24.74788858 148.31648093 -24.63396076 147.63808882 -24.51658058 146.93913937 C-24.28830107 145.57981849 -24.06003522 144.22049532 -23.83178329 142.86116982 C-23.49388409 140.84994209 -23.15547414 138.83880092 -22.81692505 136.8276825 C-21.30285631 127.82776415 -19.81440627 118.82466025 -18.375 109.8125 C-15.98303787 94.85792711 -13.54207674 79.91153522 -11.09692383 64.96557617 C-9.37619302 54.44479721 -7.6623132 43.9229967 -5.96484375 33.3984375 C-5.48440616 30.42539354 -5.00379414 27.45237783 -4.52313232 24.47937012 C-4.21774852 22.58701835 -3.91325431 20.6945228 -3.60968018 18.80187988 C-3.19120017 16.19308125 -2.76974165 13.58477983 -2.34765625 10.9765625 C-2.22510971 10.20710297 -2.10256317 9.43764343 -1.9763031 8.64486694 C-1.49087428 5.66000566 -0.95830765 2.87492296 0 0 Z " fill="#343B43" transform="translate(418,418)"/>
<path d="M0 0 C1.57442595 -0.00269765 3.1488506 -0.00626789 4.72327283 -0.01062447 C9.03891864 -0.0200424 13.3544796 -0.01709487 17.67012947 -0.01206893 C22.36945354 -0.0087934 27.06875981 -0.01709222 31.76807815 -0.02388728 C40.00088126 -0.03418293 48.23366085 -0.03703182 56.46646976 -0.03497505 C68.70922437 -0.03192397 80.95195297 -0.04025141 93.19470252 -0.0507243 C116.33298953 -0.0700647 139.47126768 -0.07569253 162.60956182 -0.07683842 C180.47764957 -0.07775753 198.34573384 -0.08187432 216.21382046 -0.08823967 C221.35724204 -0.09003476 226.50066364 -0.09181438 231.64408523 -0.09358943 C232.92275487 -0.09403152 234.20142451 -0.09447362 235.51884171 -0.09492911 C271.48454348 -0.10723719 307.45024324 -0.11514205 343.41594696 -0.11424255 C344.78558819 -0.114211 346.15522941 -0.11417952 347.52487064 -0.11414814 C353.70846054 -0.11400137 359.89205044 -0.11382504 366.07564034 -0.11364037 C368.83296795 -0.11355812 371.59029556 -0.11347783 374.34762317 -0.11339774 C375.72771388 -0.11335695 377.10780459 -0.11331491 378.48789531 -0.11327162 C422.12493108 -0.11191123 465.76193439 -0.1265454 509.39896107 -0.15435219 C520.3935298 -0.16135446 531.38809856 -0.16829348 542.38266754 -0.17488098 C543.39819227 -0.1754896 543.39819227 -0.1754896 544.43423265 -0.17611052 C581.00630395 -0.19789618 617.5783753 -0.20183474 654.15045291 -0.20042574 C659.29544628 -0.20027648 664.44043964 -0.20017907 669.58543301 -0.20011711 C670.85226095 -0.2000938 672.1190889 -0.20007049 673.42430557 -0.20004648 C693.80968142 -0.19998494 714.19502985 -0.2127559 734.58039754 -0.22998164 C755.06783383 -0.24693559 775.55523001 -0.24891378 796.04266944 -0.235763 C808.21236106 -0.22837247 820.38193083 -0.23203501 832.55160954 -0.25164768 C840.68485799 -0.26364729 848.81801819 -0.26105675 856.95126259 -0.24670668 C861.58251525 -0.23894366 866.2135321 -0.23739202 870.84476813 -0.25362138 C875.06689944 -0.26828714 879.28860079 -0.2641812 883.51071366 -0.24577365 C885.01996639 -0.24236118 886.52925371 -0.24548791 888.03847103 -0.25637607 C908.75836815 -0.39571822 930.61255201 5.01047657 946.04666615 19.63226891 C955.55006855 29.88593992 959.53745503 40.61053338 959.79666615 54.50726891 C959.82357533 55.32743492 959.8504845 56.14760094 959.87820911 56.99262047 C959.78259437 72.97570506 951.30394708 88.8958577 945.29666615 103.38226891 C944.41098775 105.53275769 943.52607787 107.68356313 942.64188099 109.83466148 C940.78433472 114.35269618 938.92393877 118.86954205 937.06180286 123.38568687 C932.91960789 133.44102944 928.82307819 143.51495606 924.7248888 153.58829308 C922.42882823 159.23121902 920.13016087 164.87308296 917.8318224 170.51508141 C917.37316792 171.64117317 916.91451344 172.76726494 916.44196033 173.9274807 C913.12266268 182.0769901 909.80174136 190.22583685 906.4802599 198.37445641 C898.21405167 218.65523787 889.95021798 238.93685255 881.73175526 259.23703575 C875.82716093 273.81970328 869.87956402 288.38472079 863.93033314 302.94922447 C858.5559208 316.10741653 853.19291221 329.27003954 847.85916615 342.44476891 C839.4644554 363.1785533 831.01871214 383.891512 822.57504749 404.60539818 C818.70951381 414.08900379 814.8479998 423.5742422 810.98772144 433.05998802 C808.64549098 438.81475758 806.30169687 444.56888016 803.95413685 450.32147789 C803.50530643 451.42132515 803.05647602 452.52117241 802.59404469 453.65434837 C801.71132637 455.8173484 800.82854559 457.98032293 799.94569874 460.14327049 C797.62260753 465.83873124 795.31080882 471.53849149 793.01559925 477.24524498 C791.75499832 480.37670515 790.48713875 483.50519295 789.21780872 486.6331234 C788.6616267 488.00902949 788.10883369 489.38631238 787.56009388 490.76520348 C773.91051486 525.05460046 748.03905885 549.58187829 714.45291615 564.41351891 C694.40809503 572.91595696 674.2655234 577.57949052 652.46833229 577.51453781 C650.89390634 577.51723546 649.31948169 577.5208057 647.74505946 577.52516228 C643.42941365 577.53458021 639.11385269 577.53163268 634.79820282 577.52660674 C630.09887875 577.52333121 625.39957248 577.53163003 620.70025414 577.53842509 C612.46745103 577.54872074 604.23467144 577.55156963 596.00186253 577.54951286 C583.75910792 577.54646178 571.51637932 577.55478922 559.27362977 577.56526211 C536.13534276 577.58460251 512.99706461 577.59023034 489.85877047 577.59137623 C471.99068272 577.59229534 454.12259845 577.59641213 436.25451183 577.60277748 C431.11109025 577.60457257 425.96766866 577.6063522 420.82424706 577.60812724 C419.54557742 577.60856933 418.26690778 577.60901143 416.94949058 577.60946692 C380.98378881 577.621775 345.01808905 577.62967987 309.05238533 577.62878036 C307.6827441 577.62874881 306.31310288 577.62871734 304.94346165 577.62868595 C298.75987175 577.62853918 292.57628185 577.62836285 286.39269195 577.62817818 C283.63536434 577.62809593 280.87803673 577.62801564 278.12070912 577.62793555 C276.74061841 577.62789476 275.3605277 577.62785272 273.98043698 577.62780943 C230.34340121 577.62644904 186.7063979 577.64108321 143.06937122 577.66889 C132.07480249 577.67589227 121.08023374 577.68283129 110.08566475 577.68941879 C109.07014002 577.69002741 109.07014002 577.69002741 108.03409964 577.69064833 C71.46202834 577.71243399 34.88995699 577.71637255 -1.68212062 577.71496356 C-6.82711399 577.71481429 -11.97210735 577.71471688 -17.11710072 577.71465492 C-18.38392866 577.71463161 -19.65075661 577.71460831 -20.95597328 577.71458429 C-41.34134913 577.71452275 -61.72669756 577.72729371 -82.11206525 577.74451945 C-102.59950154 577.76147341 -123.08689772 577.76345159 -143.57433715 577.75030081 C-155.74402877 577.74291028 -167.91359854 577.74657282 -180.08327725 577.76618549 C-188.2165257 577.77818511 -196.3496859 577.77559456 -204.4829303 577.76124449 C-209.11418296 577.75348148 -213.74519981 577.75192983 -218.37643584 577.7681592 C-222.59856715 577.78282495 -226.8202685 577.77871901 -231.04238136 577.76031146 C-232.5516341 577.75689899 -234.06092142 577.76002572 -235.57013874 577.77091388 C-256.29003586 577.91025603 -278.14421972 572.50406125 -293.57833385 557.88226891 C-303.08173626 547.62859789 -307.06912274 536.90400443 -307.32833385 523.00726891 C-307.35524303 522.18710289 -307.38215221 521.36693687 -307.40987682 520.52191734 C-307.31426256 504.53891288 -298.83562671 488.61855348 -292.82833385 474.13226891 C-291.94778248 471.99423126 -291.06799895 469.85587724 -290.18892956 467.71722984 C-288.33651548 463.21164416 -286.48123377 458.70725471 -284.62423229 454.20355797 C-280.33889673 443.8007108 -276.09921435 433.3792539 -271.85802746 422.95834923 C-270.45064137 419.50065396 -269.04232093 416.0433406 -267.63375378 412.58612633 C-262.16268457 399.15621948 -256.7058633 385.72062837 -251.26397228 372.27887535 C-245.35987583 357.69742502 -239.4129158 343.13356691 -233.46401501 328.57034874 C-228.04631513 315.30668995 -222.64151433 302.03801341 -217.26583385 288.75726891 C-211.02923457 273.34960435 -204.75030261 257.95939803 -198.46456432 242.57172203 C-193.04668267 229.30760498 -187.6416993 216.03847036 -182.26583385 202.75726891 C-176.0326267 187.35798466 -169.75784659 171.97584246 -163.47463512 156.59689903 C-158.15543756 143.57693397 -152.85264491 130.5506041 -147.57885265 117.51218224 C-145.78429044 113.0786438 -143.9843599 108.64728309 -142.18372631 104.2162075 C-140.88105777 101.00953373 -139.58245007 97.80138931 -138.2907362 94.59027672 C-123.11009292 56.86026426 -99.69149636 29.75239147 -61.98458385 13.10101891 C-41.93976274 4.59858085 -21.79719111 -0.06495271 0 0 Z M-103.21895885 62.48236656 C-110.05308132 70.32391807 -114.36273224 79.25917105 -118.4338026 88.73773766 C-119.08396595 90.24311592 -119.08396595 90.24311592 -119.74726391 91.77890587 C-124.04105019 101.78598747 -128.08954307 111.88678199 -132.09395885 122.01239586 C-138.6778804 138.65320547 -145.36553156 155.24519238 -152.26583385 171.75726891 C-159.06981949 188.04388401 -165.65294702 204.41262525 -172.1813612 220.81146812 C-177.71876934 234.71501745 -183.34915078 248.57062897 -189.15261364 262.36508751 C-194.8545102 275.93086765 -200.32296863 289.58577178 -205.76583385 303.25726891 C-211.77293233 318.34601832 -217.85400908 333.39412177 -224.15206432 348.36371422 C-229.85413497 361.92995573 -235.32278637 375.58531399 -240.76583385 389.25726891 C-246.49090231 403.63760972 -252.26391513 417.99011724 -258.26583385 432.25726891 C-264.46853977 447.00570915 -270.45412977 461.83737159 -276.39083385 476.69476891 C-276.82307262 477.77588951 -277.25531139 478.85701012 -277.70064831 479.97089195 C-279.71616788 485.01488851 -281.7259318 490.06101156 -283.72262096 495.11249352 C-284.93684062 498.18359467 -286.16814341 501.2452986 -287.43599987 504.29462242 C-289.92669777 510.40686506 -291.63672424 515.68575496 -291.45333385 522.31976891 C-291.43971813 523.08144371 -291.42610241 523.84311852 -291.41207409 524.62787437 C-290.9812821 533.92473848 -287.39816208 541.06140943 -280.76583385 547.56976891 C-265.75964583 559.75275885 -249.02272577 561.41267958 -230.45726109 561.38869667 C-228.89596013 561.39034812 -227.33465958 561.39243523 -225.77335972 561.39491677 C-221.48020117 561.40046975 -217.18706262 561.39981352 -212.89390163 561.39813918 C-208.22418112 561.39740709 -203.55446621 561.40243336 -198.8847481 561.4067142 C-189.62175309 561.41428958 -180.35876384 561.41648703 -171.09576605 561.41704326 C-160.00109676 561.41795734 -148.90643279 561.42462616 -137.8117658 561.43139008 C-110.99819591 561.44744703 -84.18462659 561.45335279 -57.37105276 561.45813883 C-44.68738601 561.46047484 -32.00371971 561.46407747 -19.32005332 561.46783421 C23.41513881 561.48046766 66.1503309 561.49128168 108.88552482 561.49467466 C110.92748601 561.4948369 112.9694472 561.49500246 115.01140838 561.49516905 C119.10652311 561.49550284 123.20163784 561.49583332 127.29675257 561.49616361 C132.09103193 561.4965505 136.8853113 561.49694011 141.67959066 561.49733467 C143.05174659 561.49744709 144.42390253 561.49755851 145.79605847 561.49766893 C189.8657586 561.50121842 233.93544243 561.51629779 278.00513634 561.53960667 C325.28036425 561.56460086 372.55558071 561.57899174 419.83081663 561.58020473 C424.94436574 561.58037618 430.05791485 561.58059161 435.17146397 561.58083916 C436.43056736 561.58089493 437.68967075 561.58095069 438.98692878 561.58100815 C459.25477136 561.58215909 479.52259706 561.59318456 499.79043393 561.60772621 C520.15833323 561.62208709 540.52621089 561.62533048 560.89411385 561.61728624 C572.99531673 561.61282826 585.09644978 561.6166974 597.19764349 561.63252474 C605.28279093 561.64227139 613.36788943 561.64109947 621.45303641 561.63108851 C626.05848172 561.62569432 630.66379289 561.62499344 635.2692271 561.63759723 C639.46560364 561.64898554 643.66173765 561.64635796 647.85810602 561.63293016 C649.3603097 561.63051068 650.86253237 561.63302834 652.36471508 561.64132664 C662.37024829 561.69292936 671.51574573 560.54625731 681.23416615 558.25726891 C682.17671109 558.04481134 683.11925603 557.83235378 684.09036294 557.61345811 C709.15325334 551.76847708 732.32634163 538.18587597 750.67166615 520.38226891 C751.20219593 519.87872887 751.73272572 519.37518883 752.27933216 518.85639 C762.28069511 508.75741498 768.04426175 496.00359708 773.23416615 483.00726891 C773.8739844 481.43605475 774.51505281 479.86534918 775.15726185 478.2951107 C776.85531715 474.13323803 778.53613915 469.96462594 780.21274281 465.7940731 C781.89207548 461.62328708 783.58530847 457.45815496 785.2771349 453.29242516 C787.72994621 447.24831034 790.17665552 441.20177529 792.61728382 435.15273094 C797.82944536 422.23568891 803.08999558 409.33864364 808.35916615 396.44476891 C814.16993607 382.22328675 819.970158 367.99777126 825.73416615 353.75726891 C831.97072579 338.3495884 838.24969746 322.95939787 844.53543568 307.57172203 C849.95331733 294.30760498 855.3583007 281.03847036 860.73416615 267.75726891 C866.97076543 252.34960435 873.24969739 236.95939803 879.53543568 221.57172203 C884.95331733 208.30760498 890.3583007 195.03847036 895.73416615 181.75726891 C901.11133979 168.4728355 906.51773951 155.20051609 911.93701649 141.93320274 C914.90091829 134.67640245 917.86262206 127.41870475 920.82449818 120.1610775 C922.38464526 116.33818968 923.94555665 112.51561546 925.50711536 108.69330406 C927.24626449 104.43553117 928.98226783 100.17648873 930.7158556 95.91644859 C931.33978325 94.38459863 931.96473694 92.85316605 932.5908556 91.32221031 C934.50294143 86.64588485 936.3904818 81.96101115 938.23416615 77.25726891 C938.482784 76.62474205 938.73140186 75.99221519 938.9875536 75.34052086 C943.24535993 64.38891025 945.65015328 54.31358691 942.19510365 42.79242516 C936.93985426 31.15160739 927.72029431 25.06192383 916.23416615 20.25726891 C905.27540621 16.20901127 894.64116382 16.11139034 883.07428932 16.12863445 C881.51695955 16.12728706 879.95963011 16.12550275 878.40230128 16.12332222 C874.11551939 16.118594 869.82875874 16.12009332 865.5419758 16.12259999 C860.88093727 16.12423277 856.21990329 16.12009248 851.5588662 16.11669081 C843.38719422 16.11153494 835.21552816 16.11011994 827.04385471 16.11114693 C814.89215212 16.11267039 802.74045609 16.10851335 790.58875476 16.1032723 C767.62390069 16.09359445 744.65904885 16.0907879 721.69419298 16.09021524 C703.96136919 16.08975594 686.22854628 16.08769887 668.49572277 16.08451462 C663.3938763 16.08361709 658.29202982 16.08272728 653.19018334 16.08183974 C651.92189776 16.08161869 650.65361218 16.08139764 649.3468937 16.0811699 C613.66555374 16.0750145 577.98421408 16.07106356 542.30287361 16.07151318 C540.94363435 16.07152895 539.58439509 16.07154469 538.22515583 16.07156038 C532.08834721 16.07163377 525.95153859 16.07172194 519.81472996 16.07181427 C517.07818971 16.07185539 514.34164946 16.07189554 511.60510921 16.07193558 C510.23542162 16.07195598 508.86573402 16.071977 507.49604643 16.07199864 C464.1871512 16.07267885 420.87826416 16.06536209 377.56937122 16.05145836 C366.657973 16.04795731 355.74657476 16.04448783 344.83517647 16.04119396 C344.16330839 16.04099109 343.49144032 16.04078821 342.79921261 16.04057919 C306.51679009 16.02968976 270.23436716 16.02771694 233.9519431 16.02842158 C228.84852485 16.02849621 223.7451066 16.02854492 218.64168835 16.0285759 C216.75676069 16.02859338 216.75676069 16.02859338 214.83375369 16.02861121 C194.59986954 16.028642 174.36599228 16.02225252 154.13211018 16.01364363 C133.80109317 16.00517225 113.47008626 16.00417317 93.13906846 16.01075295 C81.05746126 16.01445203 68.97588473 16.01260558 56.89428076 16.00281061 C48.82471125 15.99682056 40.755164 15.99809523 32.68559552 16.00528111 C28.0874118 16.00917084 23.48928753 16.00991457 18.89110795 16.00182376 C14.70367043 15.99452021 10.51634161 15.9965104 6.32890884 16.00574763 C4.8276799 16.00746154 3.32644235 16.0058649 1.82522221 16.00044642 C-38.01143078 15.86635128 -76.37293715 33.08816815 -103.21895885 62.48236656 Z " fill="#373E46" transform="translate(416.7658338546753,185.74273109436035)"/>
<path d="M0 0 C29.11339279 -0.04567068 58.22678206 -0.08104282 87.34020354 -0.10213066 C90.78092026 -0.10463193 94.2216369 -0.10722059 97.66235352 -0.10986328 C98.68978749 -0.11065021 98.68978749 -0.11065021 99.73797771 -0.11145304 C110.8141839 -0.12014468 121.89036924 -0.13590779 132.96656308 -0.15430559 C144.34019068 -0.17303923 155.71380286 -0.18397443 167.08744687 -0.18817699 C173.47228775 -0.19078158 179.85708139 -0.19689244 186.24190712 -0.21146011 C192.25578345 -0.22506981 198.26959324 -0.22921577 204.28348351 -0.22621536 C206.48645769 -0.22676401 208.68943419 -0.23072118 210.89239502 -0.23841095 C213.91018095 -0.24842521 216.92771867 -0.24594533 219.94551086 -0.24050903 C220.80838772 -0.24633472 221.67126457 -0.2521604 222.5602892 -0.25816262 C232.00388756 -0.21247422 240.89940133 1.336467 249.4375 5.4375 C250.16050293 5.78385498 250.88350586 6.13020996 251.62841797 6.48706055 C264.98698914 13.24330666 274.47608605 24.18204717 279.375 38.375 C289.803519 72.01830912 278.71038071 116.16981132 263.0625 146.375 C249.86910552 170.54758432 230.75541777 186.81567981 205 196 C202.22272032 196.80796883 199.77412514 197.12460806 196.8845787 197.12304783 C196.06846674 197.12503888 195.25235477 197.12702993 194.41151214 197.12908131 C193.5204635 197.12616847 192.62941486 197.12325563 191.71136475 197.12025452 C190.7605629 197.12110894 189.80976105 197.12196337 188.83014703 197.12284368 C185.63642015 197.124494 182.4427455 197.1189844 179.24902344 197.11352539 C176.96274822 197.1132434 174.67647292 197.11340149 172.39019775 197.1139679 C166.17574888 197.11425539 159.96131921 197.10836633 153.74687481 197.10139394 C147.25526209 197.09515249 140.76364895 197.09455597 134.27203369 197.09336853 C123.37373511 197.09061125 112.47544365 197.08436046 101.57714844 197.07543945 C90.35188838 197.06626036 79.12663024 197.05918195 67.90136719 197.05493164 C67.20943511 197.05466892 66.51750303 197.05440619 65.80460331 197.05413551 C62.33338133 197.05283047 58.86215933 197.05156676 55.39093733 197.05032361 C26.59395355 197.039957 -2.20302306 197.02226957 -31 197 C-30.84820809 195.57807769 -30.69462886 194.15634612 -30.54031372 192.73469543 C-30.41231982 191.54707469 -30.41231982 191.54707469 -30.28174019 190.33546162 C-29.88263027 187.02707346 -29.26314204 183.78018032 -28.6171875 180.51171875 C-28.4146209 179.4781147 -28.4146209 179.4781147 -28.20796204 178.42362976 C-27.76702076 176.17757288 -27.32101691 173.93255393 -26.875 171.6875 C-26.56382557 170.10700903 -26.25304148 168.52644117 -25.94262695 166.94580078 C-25.29444341 163.64668012 -24.64456707 160.34789923 -23.99365234 157.04931641 C-23.00402648 152.02804346 -22.02569477 147.00461662 -21.05078125 141.98046875 C-20.89351562 141.17004623 -20.73625 140.35962372 -20.57421875 139.52464294 C-20.26323174 137.92160056 -19.95229744 136.31854795 -19.64141846 134.71548462 C-18.66518729 129.6818624 -17.68851022 124.64833645 -16.70458984 119.61621094 C-16.26196127 117.34448037 -15.82407245 115.07181585 -15.39306641 112.79785156 C-15.2182373 111.88745117 -15.0434082 110.97705078 -14.86328125 110.0390625 C-14.71802002 109.27029785 -14.57275879 108.5015332 -14.4230957 107.70947266 C-14 106 -14 106 -13 105 C-10.53408282 104.88990963 -8.09556747 104.84504117 -5.62864685 104.84178162 C-4.84783392 104.83684364 -4.067021 104.83190566 -3.26254708 104.82681805 C-0.62612414 104.81136631 2.01027431 104.80306179 4.64672852 104.79467773 C6.52862771 104.78510523 8.41052472 104.77509553 10.29241943 104.76467896 C15.41821592 104.73755576 20.54402169 104.71658648 25.66985059 104.69667697 C31.02039118 104.67486298 36.37090293 104.64745193 41.72142029 104.62062073 C51.86096268 104.5706316 62.00052102 104.52571593 72.1400947 104.48259836 C83.68042521 104.43327902 95.2207268 104.37834129 106.76102936 104.32291877 C130.50732594 104.20900329 154.25365025 104.10218519 178 104 C184.03345667 92.62831185 184.03345667 92.62831185 185.4375 80.0625 C185.39012695 79.01932617 185.39012695 79.01932617 185.34179688 77.95507812 C185.26196349 76.3013865 185.13659436 74.64997314 185 73 C184.29800287 72.99761165 183.59600574 72.99522329 182.87273598 72.99276257 C165.76146434 72.93352818 148.65034261 72.85792435 131.53922462 72.76428509 C123.26428123 72.71939247 114.98938024 72.67996287 106.71435547 72.65356445 C99.49863387 72.63053131 92.28304722 72.59707427 85.06743276 72.55129844 C81.24971438 72.52743761 77.43212906 72.50866222 73.61433792 72.50238609 C70.01422846 72.49630268 66.41445912 72.47618687 62.81447601 72.44572449 C60.87697823 72.43286266 58.93940078 72.43450526 57.00186157 72.4367218 C41.92594859 72.2758366 30.1833067 67.25098499 19.1875 56.8125 C6.41521218 43.30511647 -0.17200489 24.67488397 -0.04296875 6.1640625 C-0.03366333 4.42697021 -0.03366333 4.42697021 -0.02416992 2.65478516 C-0.01619385 1.77870605 -0.00821777 0.90262695 0 0 Z " fill="#343B43" transform="translate(791,418)"/>
<path d="M0 0 C1.25117849 0.00037972 2.50235698 0.00075944 3.79144996 0.00115067 C4.83659567 -0.0005801 4.83659567 -0.0005801 5.90285543 -0.00234583 C8.26706462 -0.0050192 10.63120742 -0.00048447 12.99541324 0.00394398 C14.69569421 0.00350842 16.39597512 0.00263381 18.09625566 0.00135481 C22.79145321 -0.00089324 27.48662817 0.00313535 32.18182284 0.00813287 C37.23638555 0.01243277 42.29094688 0.01099128 47.3455109 0.0102306 C56.11050893 0.00970507 64.87549955 0.01285488 73.64049572 0.01846844 C86.31336517 0.02657954 98.98623102 0.02919826 111.65910279 0.03045643 C132.21769574 0.03264757 152.77628473 0.03930931 173.33487552 0.04875904 C193.3111123 0.05793157 213.28734801 0.06501318 233.26358646 0.06926686 C234.49396592 0.06952958 235.72434537 0.0697923 236.99200905 0.07006299 C243.16417577 0.07136798 249.33634249 0.0726317 255.50850922 0.07387489 C306.75035736 0.08424942 357.99220121 0.1018694 409.23404545 0.1241985 C409.09370128 1.27787419 409.09370128 1.27787419 408.95052189 2.45485646 C408.05297761 9.83416679 407.15622087 17.21357227 406.26027054 24.59307629 C405.80003324 28.38361086 405.33952924 32.17411256 404.87833256 35.96453053 C404.43219972 39.63134617 403.98673626 43.2982425 403.54184955 46.96520954 C403.36533725 48.41979296 403.18866853 49.87435739 403.01184314 51.32890278 C402.09325379 58.88955582 401.19005436 66.45123075 400.33804935 74.01970631 C400.20135334 75.23139485 400.06465732 76.44308338 399.92381901 77.69148976 C399.67085364 79.94921528 399.42123059 82.20731865 399.17549747 84.46584278 C399.06502582 85.45347615 398.95455417 86.44110951 398.8407349 87.45867115 C398.70004329 88.74627842 398.70004329 88.74627842 398.55650944 90.05989796 C398.23404545 92.1241985 398.23404545 92.1241985 397.23404545 94.1241985 C241.80404545 94.1241985 86.37404545 94.1241985 -73.76595455 94.1241985 C-70.19375107 88.76589327 -66.87130394 83.83373926 -62.89095455 78.8741985 C-52.26568206 65.51185879 -42.00888548 51.8687408 -31.9261108 38.09392506 C-27.2928889 31.78671374 -22.51766685 25.59927236 -17.69246823 19.43816334 C-13.50020755 14.08381639 -9.39264766 8.67477017 -5.3401733 3.21404225 C-3.02132099 0.13566511 -3.02132099 0.13566511 0 0 Z " fill="#B60101" transform="translate(694.765954554081,294.8758015036583)"/>
<path d="M0 0 C31.68 0 63.36 0 96 0 C98.65234969 5.30469937 101.09500052 10.46021622 103.2578125 15.94921875 C103.70929153 17.0820932 103.70929153 17.0820932 104.16989136 18.237854 C105.15819173 20.71978524 106.14161961 23.20361576 107.125 25.6875 C107.81865587 27.43251402 108.51267353 29.17738427 109.20703125 30.92211914 C110.30560643 33.68280064 111.40385939 36.44360675 112.50079346 39.2049408 C115.33789564 46.34547207 118.19287676 53.4787143 121.0546875 60.609375 C121.88787605 62.68659761 122.72104681 64.76382735 123.55419922 66.84106445 C124.7753438 69.88549251 125.99688878 72.92975635 127.2197876 75.97348022 C128.35644639 78.80330096 129.49096528 81.63397062 130.625 84.46484375 C130.96796112 85.31709534 131.31092224 86.16934692 131.66427612 87.04742432 C134 92.88608758 134 92.88608758 134 94 C84.5 94 35 94 -16 94 C-12.5411176 68.63486239 -12.5411176 68.63486239 -10.87890625 58.92578125 C-10.69287338 57.82558151 -10.50684052 56.72538177 -10.31517029 55.59184265 C-9.92793397 53.30759347 -9.53895291 51.02363935 -9.14819336 48.73999023 C-8.56140348 45.30608312 -7.98251603 41.87090637 -7.40429688 38.43554688 C-7.02130445 36.18221154 -6.63785634 33.9289536 -6.25390625 31.67578125 C-6.00369469 30.18743523 -6.00369469 30.18743523 -5.74842834 28.66902161 C-4.09079573 19.04027556 -2.01804637 9.58572026 0 0 Z " fill="#CA0101" transform="translate(441,295)"/>
<path d="M0 0 C1.14656301 0.71660188 2.27513754 1.46359834 3.375 2.25 C4.24125 2.78625 5.1075 3.3225 6 3.875 C11.74175408 9.61675408 15.47446227 16.68413685 15.75 24.8125 C15.68372206 32.63329719 12.96798789 38.09636608 8.0625 44.0625 C-0.83244702 51.30257315 -8.0708298 53.32216645 -19.625 52.25 C-27.56649179 49.84170737 -33.70411189 43.28804191 -37.7890625 36.2421875 C-40.75297944 29.40024839 -40.54989857 22.1771655 -38.1875 15.1875 C-35.08895951 8.22127777 -29.78451086 3.33527717 -23.5 -0.8125 C-16.02205008 -2.62168143 -7.11708451 -3.42975692 0 0 Z " fill="#FAF4F4" transform="translate(855.625,315.75)"/>
<path d="M0 0 C3.96 -0.061875 7.92 -0.12375 12 -0.1875 C13.23234375 -0.21481201 14.4646875 -0.24212402 15.734375 -0.27026367 C23.56645243 -0.32923252 29.61884381 0.14480144 35.8125 5.375 C40.11768063 10.54121676 41.58452881 13.8084409 41.34375 20.5703125 C40.71692277 25.00084135 38.65336371 27.61718672 35.28125 30.4375 C31.27814131 33.42286919 28.08762724 35.1359972 22.98828125 35.09765625 C21.85229492 35.09282227 21.85229492 35.09282227 20.69335938 35.08789062 C19.51483398 35.07532227 19.51483398 35.07532227 18.3125 35.0625 C17.11657227 35.05573242 17.11657227 35.05573242 15.89648438 35.04882812 C13.93095743 35.0370585 11.96546915 35.01912348 10 35 C10 38.3 10 41.6 10 45 C6.7 45 3.4 45 0 45 C0 30.15 0 15.3 0 0 Z " fill="#FAF0F0" transform="translate(765,313)"/>
<path d="M0 0 C4.970625 -0.04125 9.94125 -0.0825 15.0625 -0.125 C17.39453491 -0.15231201 17.39453491 -0.15231201 19.77368164 -0.18017578 C21.01496826 -0.1851709 22.25625488 -0.19016602 23.53515625 -0.1953125 C25.42826538 -0.21102295 25.42826538 -0.21102295 27.35961914 -0.22705078 C32.63366349 0.10189169 36.66780696 0.87974676 40.75 4.3125 C41.4925 5.199375 42.235 6.08625 43 7 C43.598125 7.70125 44.19625 8.4025 44.8125 9.125 C46.91358867 14.21184626 47.03279032 19.9238396 45.2734375 25.1640625 C43.26208579 29.00688894 40.93290873 31.24054083 37 33 C36.34 33 35.68 33 35 33 C35.33322266 33.63091553 35.66644531 34.26183105 36.00976562 34.91186523 C37.50862942 37.75263139 39.00435435 40.5950383 40.5 43.4375 C41.02464844 44.43072266 41.54929687 45.42394531 42.08984375 46.44726562 C42.58613281 47.39150391 43.08242188 48.33574219 43.59375 49.30859375 C44.05458984 50.18314209 44.51542969 51.05769043 44.99023438 51.95874023 C46 54 46 54 46 55 C42.37 55 38.74 55 35 55 C33.00086459 51.3366907 31.00718702 47.67048184 29.01855469 44.00146484 C28.34101904 42.75325319 27.66198825 41.50585192 26.98144531 40.25927734 C26.00453499 38.46922446 25.03300652 36.67634352 24.0625 34.8828125 C23.47597656 33.80402832 22.88945313 32.72524414 22.28515625 31.61376953 C21 29 21 29 21 27 C21.60328125 26.87882812 22.2065625 26.75765625 22.828125 26.6328125 C23.62734375 26.46523438 24.4265625 26.29765625 25.25 26.125 C26.43335938 25.88136719 26.43335938 25.88136719 27.640625 25.6328125 C29.99603118 25.00106448 31.90809364 24.24959008 34 23 C35.49297212 20.01405576 35.11755228 17.29146376 35 14 C34.505 13.01 34.505 13.01 34 12 C31.14493951 11.04831317 29.09062718 10.8099054 26.11328125 10.68359375 C24.845448 10.62643188 24.845448 10.62643188 23.55200195 10.56811523 C22.48296631 10.52501221 21.41393066 10.48190918 20.3125 10.4375 C16.909375 10.293125 13.50625 10.14875 10 10 C10 21.55 10 33.1 10 45 C6.7 45 3.4 45 0 45 C0 30.15 0 15.3 0 0 Z " fill="#F9EFEF" transform="translate(882,313)"/>
<path d="M0 0 C4.05206904 3.92162014 5.48087657 6.89193537 5.62890625 12.56640625 C5.23218261 18.75062773 3.67292698 22.40149202 -0.24609375 27.19140625 C-4.70778725 30.84188275 -8.90530202 31.69645948 -14.55859375 31.31640625 C-20.13361967 30.5010113 -23.55673622 28.03636999 -27.30859375 23.87890625 C-30.80214223 18.83266956 -30.60019208 13.37178002 -29.99609375 7.44140625 C-27.54233526 2.34513862 -23.37189392 -2.14293562 -18.05859375 -4.37109375 C-10.91504879 -5.02050693 -5.70076769 -4.45128436 0 0 Z " fill="#C10203" transform="translate(855.99609375,327.55859375)"/>
<path d="M0 0 C1.1653125 0.01804687 2.330625 0.03609375 3.53125 0.0546875 C6.39668249 0.1016618 9.26041168 0.16733707 12.125 0.25 C12.125 3.22 12.125 6.19 12.125 9.25 C10.02898438 9.32347656 10.02898438 9.32347656 7.890625 9.3984375 C6.05206378 9.47348082 4.21352308 9.54902797 2.375 9.625 C1.45460938 9.6559375 0.53421875 9.686875 -0.4140625 9.71875 C-1.30351563 9.75742187 -2.19296875 9.79609375 -3.109375 9.8359375 C-4.33479004 9.88306885 -4.33479004 9.88306885 -5.58496094 9.93115234 C-8.04332958 10.27343693 -9.73259999 11.0239277 -11.875 12.25 C-12.29246608 15.12364791 -12.29246608 15.12364791 -11.875 18.25 C-8.4755126 20.74871578 -5.01840189 21.94557295 -1 23.125 C4.58456726 24.92691702 10.02248949 26.88314195 13.28125 32.1015625 C14.83922398 36.06862586 14.66019236 40.06757082 14.125 44.25 C11.49971627 49.59780019 8.29001328 51.66749336 3.125 54.25 C0.75097499 54.32116382 -1.62500677 54.33409085 -4 54.3125 C-5.28132812 54.30347656 -6.56265625 54.29445313 -7.8828125 54.28515625 C-9.36394531 54.26775391 -9.36394531 54.26775391 -10.875 54.25 C-10.875 51.28 -10.875 48.31 -10.875 45.25 C-5.925 44.59 -0.975 43.93 4.125 43.25 C3.795 40.94 3.465 38.63 3.125 36.25 C0.36526555 34.47960432 -1.8536959 33.39585063 -4.875 32.25 C-18.19724532 27.06912682 -18.19724532 27.06912682 -21.875 22.25 C-23.66483568 16.88049295 -23.75931724 12.05264667 -21.25 6.9375 C-14.72781352 -0.44286891 -9.53859902 -0.27991374 0 0 Z " fill="#FBF5F5" transform="translate(739.875,313.75)"/>
<path d="M0 0 C1.1653125 0.01804687 2.330625 0.03609375 3.53125 0.0546875 C6.39668249 0.1016618 9.26041168 0.16733707 12.125 0.25 C12.125 3.22 12.125 6.19 12.125 9.25 C10.02898437 9.32347656 10.02898437 9.32347656 7.890625 9.3984375 C6.05206378 9.47348082 4.21352308 9.54902797 2.375 9.625 C1.45460938 9.6559375 0.53421875 9.686875 -0.4140625 9.71875 C-1.30351563 9.75742187 -2.19296875 9.79609375 -3.109375 9.8359375 C-4.33479004 9.88306885 -4.33479004 9.88306885 -5.58496094 9.93115234 C-8.04332958 10.27343693 -9.73259999 11.0239277 -11.875 12.25 C-12.29246608 15.12364791 -12.29246608 15.12364791 -11.875 18.25 C-8.4755126 20.74871578 -5.01840189 21.94557295 -1 23.125 C4.58456726 24.92691702 10.02248949 26.88314195 13.28125 32.1015625 C14.83922398 36.06862586 14.66019236 40.06757082 14.125 44.25 C11.49971627 49.59780019 8.29001328 51.66749336 3.125 54.25 C0.75097499 54.32116382 -1.62500677 54.33409085 -4 54.3125 C-5.28132812 54.30347656 -6.56265625 54.29445313 -7.8828125 54.28515625 C-9.36394531 54.26775391 -9.36394531 54.26775391 -10.875 54.25 C-10.875 51.28 -10.875 48.31 -10.875 45.25 C-10.04355469 45.18941406 -9.21210937 45.12882812 -8.35546875 45.06640625 C-7.26878906 44.98261719 -6.18210937 44.89882813 -5.0625 44.8125 C-3.98355469 44.73128906 -2.90460938 44.65007812 -1.79296875 44.56640625 C1.18489905 44.34787539 1.18489905 44.34787539 4.125 43.25 C4.26456727 39.87653665 4.26456727 39.87653665 3.125 36.25 C0.36526555 34.47960432 -1.8536959 33.39585063 -4.875 32.25 C-18.19724532 27.06912682 -18.19724532 27.06912682 -21.875 22.25 C-23.66483568 16.88049295 -23.75931724 12.05264667 -21.25 6.9375 C-14.72781352 -0.44286891 -9.53859902 -0.27991374 0 0 Z " fill="#FAF5F5" transform="translate(1028.875,313.75)"/>
<path d="M0 0 C18.15 0 36.3 0 55 0 C55 2.97 55 5.94 55 9 C47.74 9 40.48 9 33 9 C33 20.55 33 32.1 33 44 C29.7 44 26.4 44 23 44 C23 32.45 23 20.9 23 9 C15.41 9 7.82 9 0 9 C0 6.03 0 3.06 0 0 Z " fill="#FBF7F7" transform="translate(940,314)"/>
<path d="M0 0 C2.206875 -0.04125 4.41375 -0.0825 6.6875 -0.125 C8.54955078 -0.15980469 8.54955078 -0.15980469 10.44921875 -0.1953125 C14.96637288 0.05315582 17.78622285 0.78622285 21 4 C21.4375 7.375 21.4375 7.375 21 11 C18.90460804 13.30737713 17.2322973 14.79627026 14.08911133 15.31591797 C11.94130706 15.39315714 9.83421029 15.34975776 7.6875 15.25 C6.57665039 15.22292969 6.57665039 15.22292969 5.44335938 15.1953125 C3.6283429 15.14847337 1.81399834 15.07673789 0 15 C0 10.05 0 5.1 0 0 Z " fill="#CF0001" transform="translate(775,323)"/>
<path d="M0 0 C3.3 0 6.6 0 10 0 C10 2.97 10 5.94 10 9 C6.7 9 3.4 9 0 9 C0 6.03 0 3.06 0 0 Z " fill="#E3C2C2" transform="translate(882,359)"/>
<path d="M0 0 C2.97 0 5.94 0 9 0 C9 2.97 9 5.94 9 9 C6.03 9 3.06 9 0 9 C0 6.03 0 3.06 0 0 Z " fill="#E8C7C7" transform="translate(719,359)"/>
<path d="M0 0 C3.3 0 6.6 0 10 0 C10 1.98 10 3.96 10 6 C6.7 6 3.4 6 0 6 C0 4.02 0 2.04 0 0 Z " fill="#DBB7B7" transform="translate(963,362)"/>
<path d="M0 0 C3.3 0 6.6 0 10 0 C10 0.99 10 1.98 10 3 C6.7 3 3.4 3 0 3 C0 2.01 0 1.02 0 0 Z " fill="#D9ADAD" transform="translate(882,365)"/>
<path d="M0 0 C1.65 0 3.3 0 5 0 C5 1.98 5 3.96 5 6 C3.35 6 1.7 6 0 6 C0 4.02 0 2.04 0 0 Z " fill="#D9A7A7" transform="translate(770,362)"/>
<path d="M0 0 C3.3 0 6.6 0 10 0 C10 1.98 10 3.96 10 6 C8.68 6 7.36 6 6 6 C6 5.01 6 4.02 6 3 C6.99 3 7.98 3 9 3 C9 2.34 9 1.68 9 1 C6.03 1 3.06 1 0 1 C0 0.67 0 0.34 0 0 Z " fill="#D2A5A5" transform="translate(963,362)"/>
<path d="M0 0 C1.32 0 2.64 0 4 0 C4 1.98 4 3.96 4 6 C2.68 6 1.36 6 0 6 C0 4.02 0 2.04 0 0 Z " fill="#E2BDBC" transform="translate(765,362)"/>
<path d="M0 0 C1.32 0 2.64 0 4 0 C4 1.98 4 3.96 4 6 C2.68 6 1.36 6 0 6 C0 4.02 0 2.04 0 0 Z " fill="#E1C4C4" transform="translate(1013,359)"/>
<path d="M0 0 C1.32 0 2.64 0 4 0 C4 1.98 4 3.96 4 6 C2.68 6 1.36 6 0 6 C0 4.02 0 2.04 0 0 Z " fill="#E1C4C4" transform="translate(1008,359)"/>
</svg>
